# xmcd CD database file
#
# Track frame offsets:
#	150
#	13912
#	28327
#
# Disc length: 563 seconds
#
# Revision: 0
# Processed by: cddbd v1.5.2PL0 Copyright (c) Steve Scherf et al.
# Submitted via: CDex 1.70beta3
#
DISCID=21023103
DTITLE=Masabumi Kikuchi the Slash Trio - Slash 1° Special Sampler
DYEAR=2001
DGENRE=Jazz
TTITLE0=Slash 1° (Version-A)
TTITLE1=Slash 1° (Version-B)
TTITLE2=Slash 1° (Version-C)
EXTD=YEAR: 2001
EXTT0=
EXTT1=
EXTT2=
PLAYORDER=
